<svg width="1262" height="1044" viewBox="0 0 1262 1044" fill="none" xmlns="http://www.w3.org/2000/svg">
<path d="M42 40V68H1220V40V12H42V40ZM1222 42H1194V1002H1222H1250V42H1222ZM1220 1004V976H42V1004V1032H1220V1004ZM40 1002H68V42H40H12V1002H40ZM42 1004V976C56.3592 976 68 987.64 68 1002H40H12C12 1018.57 25.4317 1032 42 1032V1004ZM1222 1002H1194C1194 987.641 1205.64 976 1220 976V1004V1032C1236.57 1032 1250 1018.57 1250 1002H1222ZM1220 40V68C1205.64 68 1194 56.3596 1194 42H1222H1250C1250 25.4313 1236.57 12 1220 12V40ZM42 40V12C25.4309 12 12 25.432 12 42H40H68C68 56.3589 56.3599 68 42 68V40Z" fill="white" fill-opacity="0.1"/>
<g clip-path="url(#clip0_0_1)">
<path d="M761.27 362.56L759.63 363.27H720.67C701.65 326.71 674.18 300.91 638.86 286.48C608.76 274.17 583.74 275.01 583.49 275.02C525.04 277.57 480.63 302.68 451.49 349.65C428.98 385.92 424.14 422.37 424.1 422.74L421.69 441.69L402.82 438.72C379.09 434.92 347.12 447.97 323.23 471.18C306.27 487.66 278.91 523.65 286.21 579.52C291.24 618.04 308.98 650.29 338.92 675.38C357.33 690.81 375.09 698.82 381.56 701.44H483.37V738.44H375.13L372.26 737.48C371.15 737.1 344.58 728 316.42 704.79C280.37 675.07 255.64 631.07 249.52 584.32C245.86 556.3 248.8 529.33 258.27 504.17C266.59 482.05 280.14 461.46 297.45 444.64C324.46 418.39 359.37 402.44 390.66 401.18C394.6 384.66 402.86 358.26 419.25 331.43C443.96 291 492.22 241.97 581.87 238.05C583.07 238 613.78 236.69 651.07 251.5C685.32 265.11 732.25 295.42 761.27 362.56Z" fill="#009BDF"/>
<path d="M603.94 648.04L633.27 640.54C636.02 639.84 636.61 637.36 635.91 634.61C635.21 631.86 631.81 630.29 629.06 631L601.4 638.08C596.8 639.26 593.59 643.39 593.59 648.14V664C593.59 668.75 596.8 672.88 601.4 674.06L634.32 682.48C634.32 682.48 634.38 682.52 634.39 682.57C635.88 687.27 637.8 691.87 640.07 696.26C640.09 696.29 640.09 696.32 640.07 696.35L622.75 725.59C620.33 729.67 620.98 734.87 624.34 738.23L635.55 749.44C638.91 752.8 644.1 753.45 648.18 751.03L677.42 733.71C677.42 733.71 677.48 733.7 677.51 733.71C681.9 735.99 686.5 737.9 691.2 739.39C691.25 739.41 691.28 739.43 691.29 739.46L699.71 772.37C700.89 776.97 705.02 780.18 709.77 780.18H725.63C730.38 780.18 734.51 776.97 735.69 772.37L744.11 739.46C744.11 739.46 744.15 739.4 744.2 739.39C748.9 737.9 753.5 735.99 757.89 733.71C757.92 733.69 757.95 733.69 757.98 733.71L787.22 751.03C791.3 753.45 796.5 752.8 799.85 749.44L811.06 738.23C814.42 734.87 815.07 729.68 812.65 725.59L795.33 696.35C795.33 696.35 795.31 696.29 795.33 696.26C797.61 691.87 799.52 687.27 801.01 682.57C801.02 682.52 801.05 682.49 801.08 682.48L833.99 674.06C838.59 672.88 841.8 668.75 841.8 664V648.14C841.8 643.39 838.59 639.26 833.99 638.08L801.08 629.66C801.08 629.66 801.02 629.62 801.01 629.57C799.52 624.87 797.61 620.27 795.33 615.88C795.31 615.85 795.31 615.82 795.33 615.79L812.65 586.55C815.07 582.47 814.42 577.27 811.06 573.92L799.85 562.71C796.49 559.35 791.3 558.7 787.22 561.12L757.98 578.44C757.98 578.44 757.92 578.46 757.89 578.44C753.5 576.16 748.9 574.25 744.2 572.76C744.15 572.74 744.12 572.72 744.11 572.69L735.69 539.78C734.51 535.18 730.38 531.97 725.63 531.97H709.77C705.02 531.97 700.89 535.18 699.71 539.78L691.29 572.7C691.29 572.7 691.25 572.76 691.2 572.77C686.5 574.26 681.9 576.17 677.51 578.45C677.48 578.47 677.45 578.47 677.42 578.45L648.18 561.13C644.1 558.71 638.9 559.36 635.55 562.72L624.34 573.93C620.98 577.29 620.33 582.48 622.75 586.56L640.07 615.8C640.07 615.8 640.08 615.86 640.07 615.89C637.8 620.27 635.88 624.88 634.39 629.58C634.38 629.63 634.35 629.66 634.32 629.67L628.3 631.21C625.55 631.91 623.89 634.72 624.59 637.47C625.29 640.22 628.1 641.88 630.85 641.18L636.87 639.64C640.36 638.75 643.1 636.15 644.2 632.7C645.52 628.56 647.2 624.5 649.21 620.63C650.87 617.43 650.77 613.66 648.93 610.56L631.61 581.32C631.61 581.32 631.59 581.23 631.62 581.2L642.83 569.99C642.83 569.99 642.91 569.95 642.95 569.97L672.19 587.29C675.29 589.13 679.05 589.23 682.26 587.57C686.13 585.56 690.19 583.88 694.33 582.56C697.78 581.46 700.38 578.72 701.27 575.23L709.69 542.32C709.69 542.32 709.74 542.25 709.78 542.25H725.64C725.64 542.25 725.72 542.28 725.73 542.32L734.15 575.24C735.04 578.73 737.64 581.47 741.09 582.56C745.23 583.88 749.29 585.56 753.16 587.57C756.36 589.23 760.13 589.13 763.23 587.29L792.47 569.97C792.47 569.97 792.56 569.95 792.59 569.99L803.8 581.2C803.8 581.2 803.84 581.28 803.82 581.32L786.5 610.56C784.66 613.66 784.56 617.42 786.22 620.63C788.23 624.5 789.91 628.56 791.23 632.7C792.33 636.15 795.07 638.75 798.56 639.64L831.47 648.06C831.47 648.06 831.54 648.11 831.54 648.15V664.01C831.54 664.01 831.51 664.09 831.47 664.1L798.56 672.52C795.07 673.41 792.33 676.01 791.23 679.46C789.91 683.6 788.23 687.66 786.22 691.53C784.56 694.73 784.66 698.5 786.5 701.6L803.82 730.84C803.82 730.84 803.84 730.93 803.8 730.96L792.59 742.17C792.59 742.17 792.51 742.21 792.47 742.18L763.23 724.86C760.13 723.02 756.37 722.92 753.16 724.58C749.29 726.59 745.23 728.27 741.09 729.59C737.64 730.69 735.04 733.43 734.15 736.92L725.73 769.83C725.73 769.83 725.68 769.9 725.64 769.9H709.78C709.78 769.9 709.7 769.87 709.69 769.83L701.27 736.92C700.38 733.43 697.78 730.69 694.33 729.59C690.19 728.27 686.13 726.59 682.26 724.58C679.06 722.92 675.29 723.02 672.19 724.86L642.95 742.18C642.95 742.18 642.86 742.2 642.83 742.16L631.62 730.95C631.62 730.95 631.58 730.87 631.61 730.83L648.93 701.59C650.77 698.49 650.87 694.73 649.21 691.52C647.2 687.65 645.52 683.59 644.2 679.45C643.1 676 640.36 673.4 636.87 672.51L603.96 664.09C603.96 664.09 603.89 664.04 603.89 664V648.14C603.89 648.14 603.92 648.06 603.96 648.05L603.94 648.04Z" fill="#009BDF"/>
<path d="M717.69 611.41C742.31 611.41 762.34 631.44 762.34 656.06C762.34 658.9 764.64 661.2 767.48 661.2C770.32 661.2 772.62 658.9 772.62 656.06C772.62 625.77 747.98 601.12 717.68 601.12C687.38 601.12 662.74 625.77 662.74 656.06C662.74 686.35 687.39 711 717.68 711C740.38 711 760.44 697.36 768.79 676.26C769.83 673.62 768.54 670.63 765.9 669.59C763.26 668.54 760.27 669.84 759.23 672.48C752.44 689.63 736.14 700.72 717.69 700.72C693.07 700.72 673.04 680.69 673.04 656.07C673.04 631.45 693.07 611.42 717.69 611.42V611.41Z" fill="#009BDF"/>
<path d="M717.69 712.38C686.99 712.38 662.01 687.4 662.01 656.7C662.01 626 686.99 601.02 717.69 601.02C748.39 601.02 773.37 626 773.37 656.7C773.37 687.4 748.39 712.38 717.69 712.38ZM717.69 612.02C693.05 612.02 673.01 632.06 673.01 656.7C673.01 681.34 693.05 701.38 717.69 701.38C742.33 701.38 762.37 681.34 762.37 656.7C762.37 632.06 742.33 612.02 717.69 612.02Z" fill="#009BDF"/>
<path d="M852.4 387.35H582.98C539.78 387.35 504.64 422.5 504.64 465.7V770.34C504.64 813.54 539.78 848.69 582.98 848.69H852.4C895.59 848.69 930.74 813.54 930.74 770.34V465.7C930.74 422.5 895.59 387.35 852.4 387.35ZM680.86 433.3C689.39 433.3 696.31 440.21 696.31 448.74C696.31 457.27 689.39 464.19 680.86 464.19C672.33 464.19 665.42 457.28 665.42 448.74C665.42 440.2 672.33 433.3 680.86 433.3ZM628.39 433.3C636.93 433.3 643.84 440.21 643.84 448.74C643.84 457.27 636.93 464.19 628.39 464.19C619.85 464.19 612.95 457.28 612.95 448.74C612.95 440.2 619.86 433.3 628.39 433.3ZM575.93 433.3C584.46 433.3 591.37 440.21 591.37 448.74C591.37 457.27 584.46 464.19 575.93 464.19C567.4 464.19 560.48 457.28 560.48 448.74C560.48 440.2 567.4 433.3 575.93 433.3ZM892.98 770.34C892.98 792.72 874.77 810.93 852.4 810.93H582.98C560.61 810.93 542.4 792.72 542.4 770.34V508.87H892.98V770.34Z" fill="#009BDF"/>
</g>
<rect x="40" y="4" width="52.3125" height="30" rx="3" fill="#444444"/>
<rect x="40.5" y="4.5" width="51.3125" height="29" rx="2.5" stroke="white" stroke-opacity="0.0980392"/>
<path d="M46.9688 22V14H51.7656V14.8594H47.9375V17.5625H51.4063V18.4219H47.9375V22H46.9688ZM55.0654 22.1406C54.6852 22.1406 54.3402 22.069 54.0303 21.9258C53.7204 21.7799 53.4743 21.5703 53.292 21.2969C53.1097 21.0208 53.0186 20.6875 53.0186 20.2969C53.0186 19.9531 53.0863 19.6745 53.2217 19.4609C53.3571 19.2448 53.5381 19.0755 53.7646 18.9531C53.9912 18.8307 54.2412 18.7396 54.5146 18.6797C54.7907 18.6172 55.068 18.5677 55.3467 18.5313C55.7113 18.4844 56.0068 18.4492 56.2334 18.4258C56.4626 18.3997 56.6292 18.3568 56.7334 18.2969C56.8402 18.237 56.8936 18.1328 56.8936 17.9844V17.9531C56.8936 17.5677 56.7881 17.2682 56.5771 17.0547C56.3688 16.8411 56.0524 16.7344 55.6279 16.7344C55.1878 16.7344 54.8428 16.8307 54.5928 17.0234C54.3428 17.2161 54.167 17.4219 54.0654 17.6406L53.1904 17.3281C53.3467 16.9635 53.555 16.6797 53.8154 16.4766C54.0785 16.2708 54.3649 16.1276 54.6748 16.0469C54.9873 15.9635 55.2946 15.9219 55.5967 15.9219C55.7894 15.9219 56.0107 15.9453 56.2607 15.9922C56.5133 16.0365 56.7568 16.1289 56.9912 16.2695C57.2282 16.4102 57.4248 16.6224 57.5811 16.9062C57.7373 17.1901 57.8154 17.5703 57.8154 18.0469V22H56.8936V21.1875H56.8467C56.7842 21.3177 56.68 21.457 56.5342 21.6055C56.3883 21.7539 56.1943 21.8802 55.9521 21.9844C55.71 22.0885 55.4144 22.1406 55.0654 22.1406ZM55.2061 21.3125C55.5706 21.3125 55.8779 21.2409 56.1279 21.0977C56.3805 20.9544 56.5706 20.7695 56.6982 20.543C56.8285 20.3164 56.8936 20.0781 56.8936 19.8281V18.9844C56.8545 19.0312 56.7686 19.0742 56.6357 19.1133C56.5055 19.1497 56.3545 19.1823 56.1826 19.2109C56.0133 19.237 55.848 19.2604 55.6865 19.2812C55.5277 19.2995 55.3988 19.3151 55.2998 19.3281C55.0602 19.3594 54.8363 19.4102 54.6279 19.4805C54.4222 19.5482 54.2555 19.651 54.1279 19.7891C54.0029 19.9245 53.9404 20.1094 53.9404 20.3437C53.9404 20.6641 54.0589 20.9062 54.2959 21.0703C54.5355 21.2318 54.8389 21.3125 55.2061 21.3125ZM64.1895 16L61.9707 22H61.0332L58.8145 16H59.8145L61.4707 20.7812H61.5332L63.1895 16H64.1895ZM65.4063 22V16H66.3281V22H65.4063ZM65.875 15C65.6953 15 65.5404 14.9388 65.4102 14.8164C65.2826 14.694 65.2188 14.5469 65.2188 14.375C65.2188 14.2031 65.2826 14.056 65.4102 13.9336C65.5404 13.8112 65.6953 13.75 65.875 13.75C66.0547 13.75 66.2083 13.8112 66.3359 13.9336C66.4661 14.056 66.5313 14.2031 66.5313 14.375C66.5313 14.5469 66.4661 14.694 66.3359 14.8164C66.2083 14.9388 66.0547 15 65.875 15ZM70.4541 22.125C69.8916 22.125 69.4072 21.9922 69.001 21.7266C68.5947 21.4609 68.2822 21.0951 68.0635 20.6289C67.8447 20.1628 67.7354 19.6302 67.7354 19.0312C67.7354 18.4219 67.8473 17.8841 68.0713 17.418C68.2979 16.9492 68.613 16.5833 69.0166 16.3203C69.4229 16.0547 69.8968 15.9219 70.4385 15.9219C70.8604 15.9219 71.2406 16 71.5791 16.1562C71.9176 16.3125 72.195 16.5312 72.4111 16.8125C72.6273 17.0937 72.7614 17.4219 72.8135 17.7969H71.8916C71.8213 17.5234 71.665 17.2812 71.4229 17.0703C71.1833 16.8568 70.8604 16.75 70.4541 16.75C70.0947 16.75 69.7796 16.8437 69.5088 17.0312C69.2406 17.2161 69.0309 17.4779 68.8799 17.8164C68.7314 18.1523 68.6572 18.5469 68.6572 19C68.6572 19.4635 68.7301 19.8672 68.876 20.2109C69.0244 20.5547 69.2327 20.8216 69.501 21.0117C69.7718 21.2018 70.0895 21.2969 70.4541 21.2969C70.6937 21.2969 70.9111 21.2552 71.1064 21.1719C71.3018 21.0885 71.4671 20.9688 71.6025 20.8125C71.738 20.6562 71.8343 20.4687 71.8916 20.25H72.8135C72.7614 20.6042 72.6325 20.9232 72.4268 21.207C72.2236 21.4883 71.9541 21.7122 71.6182 21.8789C71.2848 22.043 70.8968 22.125 70.4541 22.125ZM76.5986 22.125C76.057 22.125 75.5817 21.9961 75.1729 21.7383C74.7666 21.4805 74.4489 21.1198 74.2197 20.6562C73.9932 20.1927 73.8799 19.651 73.8799 19.0312C73.8799 18.4062 73.9932 17.8607 74.2197 17.3945C74.4489 16.9284 74.7666 16.5664 75.1729 16.3086C75.5817 16.0508 76.057 15.9219 76.5986 15.9219C77.1403 15.9219 77.6143 16.0508 78.0205 16.3086C78.4294 16.5664 78.7471 16.9284 78.9736 17.3945C79.2028 17.8607 79.3174 18.4062 79.3174 19.0312C79.3174 19.651 79.2028 20.1927 78.9736 20.6562C78.7471 21.1198 78.4294 21.4805 78.0205 21.7383C77.6143 21.9961 77.1403 22.125 76.5986 22.125ZM76.5986 21.2969C77.0101 21.2969 77.3486 21.1914 77.6143 20.9805C77.8799 20.7695 78.0765 20.4922 78.2041 20.1484C78.3317 19.8047 78.3955 19.4323 78.3955 19.0312C78.3955 18.6302 78.3317 18.2565 78.2041 17.9102C78.0765 17.5638 77.8799 17.2839 77.6143 17.0703C77.3486 16.8568 77.0101 16.75 76.5986 16.75C76.1872 16.75 75.8486 16.8568 75.583 17.0703C75.3174 17.2839 75.1208 17.5638 74.9932 17.9102C74.8656 18.2565 74.8018 18.6302 74.8018 19.0312C74.8018 19.4323 74.8656 19.8047 74.9932 20.1484C75.1208 20.4922 75.3174 20.7695 75.583 20.9805C75.8486 21.1914 76.1872 21.2969 76.5986 21.2969ZM81.6465 18.3906V22H80.7246V16H81.6152V16.9375H81.6934C81.834 16.6328 82.0475 16.388 82.334 16.2031C82.6204 16.0156 82.9902 15.9219 83.4434 15.9219C83.8496 15.9219 84.2051 16.0052 84.5098 16.1719C84.8145 16.3359 85.0514 16.5859 85.2207 16.9219C85.39 17.2552 85.4746 17.6771 85.4746 18.1875V22H84.5527V18.25C84.5527 17.7786 84.4303 17.4115 84.1855 17.1484C83.9408 16.8828 83.6048 16.75 83.1777 16.75C82.8835 16.75 82.6204 16.8138 82.3887 16.9414C82.1595 17.069 81.9785 17.2552 81.8457 17.5C81.7129 17.7448 81.6465 18.0417 81.6465 18.3906Z" fill="white"/>
<defs>
<clipPath id="clip0_0_1">
<rect width="682.74" height="610.69" fill="white" transform="translate(248 238)"/>
</clipPath>
</defs>
</svg>
