<svg width="108" height="85" viewBox="0 0 108 85" fill="none" xmlns="http://www.w3.org/2000/svg">
<g clip-path="url(#clip0_70_4742)">
<path d="M66.6126 56.7946C68.8249 57.1625 69.1038 60.4085 67.0206 61.2069L11.401 61.3254C8.65014 60.9942 9.1034 56.5018 9.22891 54.4447C9.82163 44.8549 14.4187 34.7246 20.5516 27.4534C28.738 17.7451 40.296 11.6191 53.1144 10.9898C47.5498 6.51829 50.8551 -0.297953 57.7393 0.010609C61.463 0.177964 64.451 2.62554 64.0953 6.55664C63.9123 8.57711 62.6048 9.65098 61.3008 10.9881C65.1413 11.2827 68.9068 11.9887 72.62 12.9057C72.9251 10.9236 72.7856 6.84777 75.336 6.47645L102.144 6.45728C103.715 6.72923 104.051 7.71767 104.407 9.07221C105.441 13.0155 106.33 17.9072 107.022 21.9586C108.77 32.1917 109.126 42.4282 99.742 48.9952C95.8562 51.7147 91.688 52.0808 91.2505 57.9191C90.9663 61.7072 91.0012 67.7076 91.2505 71.5184C91.5503 76.1102 94.554 78.5578 99.0116 78.9082C100.811 79.0494 104.519 78.251 104.975 80.7805C105.303 82.597 104.266 83.6691 102.498 83.7946C93.5603 83.1915 83.6114 84.5739 74.7921 83.7946C73.0663 83.643 72.1772 82.5081 72.4892 80.7805C72.9425 78.2702 76.8353 79.0546 78.6274 78.9082C82.4277 78.5979 85.862 76.2445 86.2124 72.2123C86.5349 68.4973 86.5087 61.6532 86.2124 57.9191C85.7051 51.5055 80.0481 51.2614 76.1868 47.7418C67.7527 40.0556 69.3566 28.4349 71.5444 18.35L71.2794 17.9926C69.3583 17.5202 67.4651 16.9641 65.5126 16.6189C48.1966 13.5472 32.0816 19.5563 21.9723 33.9245C17.3927 40.4357 14.3367 48.7825 14.2775 56.7946H66.6126ZM75.2349 25.9681H102.578L99.5119 11.328L77.8568 11.3472L75.2367 25.9681H75.2349Z" fill="#F7B642"/>
<path d="M11.638 69.5363C8.48966 69.2731 3.88564 70.1552 1.1574 68.2602C-0.62075 67.0242 -0.315675 64.4076 1.82159 63.9316H79.1555C82.3335 64.5784 81.3747 68.4398 80.4333 70.6154C78.0084 76.2183 70.8522 79.4103 65.0523 79.7903C52.6732 79.2551 39.7328 80.4754 27.4182 79.7903C20.527 79.4068 14.4151 75.9899 11.638 69.5346V69.5363Z" fill="#F7B642"/>
</g>
<defs>
<clipPath id="clip0_70_4742">
<rect width="108" height="84.0403" fill="white"/>
</clipPath>
</defs>
</svg>
